<svg xmlns="http://www.w3.org/2000/svg" xmlns:xlink="http://www.w3.org/1999/xlink" width="1148pt" height="260pt" viewBox="0 0 1147.72 260"><g id="graph0" class="graph" transform="scale(1 1) rotate(0) translate(4 256)"><title>%3</title><polygon fill="#fff" stroke="transparent" points="-4 4 -4 -256 1143.72 -256 1143.72 4 -4 4"/><g id="node1" class="node"><title>140296059179616</title><ellipse cx="418.16" cy="-234" fill="#696969" fill-opacity=".6" stroke="#696969" stroke-opacity=".6" rx="27.58" ry="18"/><text x="418.16" y="-229.8" font-family="Times,serif" font-size="14" text-anchor="middle">State</text></g><g id="node2" class="node"><title>140296059181520</title><ellipse cx="192.16" cy="-162" fill="#7ebdff" fill-opacity=".6" stroke="#7ebdff" stroke-opacity=".6" rx="39.19" ry="18"/><text x="192.16" y="-157.8" font-family="Times,serif" font-size="14" text-anchor="middle">Pending</text></g><g id="edge1" class="edge"><title>140296059179616-&gt;140296059181520</title><path fill="none" stroke="#000" d="M393.54,-225.38C355.07,-213.46 280.25,-190.28 233.43,-175.78"/><polygon fill="#000" stroke="#000" points="234.19 -172.35 223.6 -172.74 232.12 -179.04 234.19 -172.35"/></g><g id="node7" class="node"><title>140296059186704</title><ellipse cx="364.16" cy="-162" fill="#696969" fill-opacity=".6" stroke="#696969" stroke-opacity=".6" rx="50.26" ry="18"/><text x="364.16" y="-157.8" font-family="Times,serif" font-size="14" text-anchor="middle">_MetaState</text></g><g id="edge6" class="edge"><title>140296059179616-&gt;140296059186704</title><path fill="none" stroke="#000" d="M406.18,-217.46C399.38,-208.65 390.72,-197.43 383.03,-187.46"/><polygon fill="#000" stroke="#000" points="385.74 -185.25 376.86 -179.47 380.2 -189.52 385.74 -185.25"/></g><g id="node11" class="node"><title>140296059195792</title><ellipse cx="473.16" cy="-162" fill="#3d67ff" fill-opacity=".6" stroke="#3d67ff" stroke-opacity=".6" rx="40.64" ry="18"/><text x="473.16" y="-157.8" font-family="Times,serif" font-size="14" text-anchor="middle">Running</text></g><g id="edge10" class="edge"><title>140296059179616-&gt;140296059195792</title><path fill="none" stroke="#000" d="M430.37,-217.46C437.29,-208.65 446.11,-197.43 453.94,-187.46"/><polygon fill="#000" stroke="#000" points="456.8 -189.49 460.22 -179.47 451.29 -185.17 456.8 -189.49"/></g><g id="node12" class="node"><title>140296059197360</title><ellipse cx="652.16" cy="-162" fill="#003ccb" fill-opacity=".6" stroke="#003ccb" stroke-opacity=".6" rx="40.64" ry="18"/><text x="652.16" y="-157.8" font-family="Times,serif" font-size="14" text-anchor="middle">Finished</text></g><g id="edge11" class="edge"><title>140296059179616-&gt;140296059197360</title><path fill="none" stroke="#000" d="M443.2,-225.51C483.02,-213.6 561.23,-190.2 609.86,-175.66"/><polygon fill="#000" stroke="#000" points="610.88 -179 619.46 -172.78 608.88 -172.29 610.88 -179"/></g><g id="node3" class="node"><title>140296059183072</title><ellipse cx="127.16" cy="-90" fill="#ffab00" fill-opacity=".6" stroke="#ffab00" stroke-opacity=".6" rx="46.89" ry="18"/><text x="127.16" y="-85.8" font-family="Times,serif" font-size="14" text-anchor="middle">Scheduled</text></g><g id="edge2" class="edge"><title>140296059181520-&gt;140296059183072</title><path fill="none" stroke="#000" d="M177.41,-145.12C169.05,-136.12 158.44,-124.68 149.12,-114.65"/><polygon fill="#000" stroke="#000" points="151.67 -112.25 142.3 -107.31 146.54 -117.02 151.67 -112.25"/></g><g id="node4" class="node"><title>140296059184960</title><ellipse cx="35.16" cy="-18" fill="#99a8e8" fill-opacity=".6" stroke="#99a8e8" stroke-opacity=".6" rx="35.32" ry="18"/><text x="35.16" y="-13.8" font-family="Times,serif" font-size="14" text-anchor="middle">Paused</text></g><g id="edge3" class="edge"><title>140296059183072-&gt;140296059184960</title><path fill="none" stroke="#000" d="M106.74,-73.46C93.56,-63.43 76.26,-50.27 61.97,-39.4"/><polygon fill="#000" stroke="#000" points="64.03 -36.57 53.95 -33.3 59.79 -42.14 64.03 -36.57"/></g><g id="node5" class="node"><title>140296059192240</title><ellipse cx="127.16" cy="-18" fill="#f58c0c" fill-opacity=".6" stroke="#f58c0c" stroke-opacity=".6" rx="38.7" ry="18"/><text x="127.16" y="-13.8" font-family="Times,serif" font-size="14" text-anchor="middle">Resume</text></g><g id="edge4" class="edge"><title>140296059183072-&gt;140296059192240</title><path fill="none" stroke="#000" d="M127.16,-71.7C127.16,-63.98 127.16,-54.71 127.16,-46.11"/><polygon fill="#000" stroke="#000" points="130.66 -46.1 127.16 -36.1 123.66 -46.1 130.66 -46.1"/></g><g id="node6" class="node"><title>140296059193920</title><ellipse cx="225.16" cy="-18" fill="#f66a0a" fill-opacity=".6" stroke="#f66a0a" stroke-opacity=".6" rx="41.11" ry="18"/><text x="225.16" y="-13.8" font-family="Times,serif" font-size="14" text-anchor="middle">Retrying</text></g><g id="edge5" class="edge"><title>140296059183072-&gt;140296059193920</title><path fill="none" stroke="#000" d="M148.42,-73.81C162.48,-63.77 181.09,-50.48 196.45,-39.5"/><polygon fill="#000" stroke="#000" points="198.51 -42.34 204.61 -33.68 194.44 -36.64 198.51 -42.34"/></g><g id="node8" class="node"><title>140296059187648</title><ellipse cx="246.16" cy="-90" fill="#eb0000" fill-opacity=".6" stroke="#eb0000" stroke-opacity=".6" rx="53.66" ry="18"/><text x="246.16" y="-85.8" font-family="Times,serif" font-size="14" text-anchor="middle">ClientFailed</text></g><g id="edge7" class="edge"><title>140296059186704-&gt;140296059187648</title><path fill="none" stroke="#000" d="M339.14,-146.15C322.04,-136.02 299.18,-122.45 280.4,-111.31"/><polygon fill="#000" stroke="#000" points="281.94 -108.16 271.56 -106.07 278.37 -114.18 281.94 -108.16"/></g><g id="node9" class="node"><title>140296059189472</title><ellipse cx="364.16" cy="-90" fill="#ffdf5d" fill-opacity=".6" stroke="#ffdf5d" stroke-opacity=".6" rx="46.43" ry="18"/><text x="364.16" y="-85.8" font-family="Times,serif" font-size="14" text-anchor="middle">Submitted</text></g><g id="edge8" class="edge"><title>140296059186704-&gt;140296059189472</title><path fill="none" stroke="#000" d="M364.16,-143.7C364.16,-135.98 364.16,-126.71 364.16,-118.11"/><polygon fill="#000" stroke="#000" points="367.66 -118.1 364.16 -108.1 360.66 -118.1 367.66 -118.1"/></g><g id="node10" class="node"><title>140296059190416</title><ellipse cx="466.16" cy="-90" fill="#ffea7f" fill-opacity=".6" stroke="#ffea7f" stroke-opacity=".6" rx="37.72" ry="18"/><text x="466.16" y="-85.8" font-family="Times,serif" font-size="14" text-anchor="middle">Queued</text></g><g id="edge9" class="edge"><title>140296059186704-&gt;140296059190416</title><path fill="none" stroke="#000" d="M386.29,-145.81C401.12,-135.63 420.81,-122.12 436.93,-111.06"/><polygon fill="#000" stroke="#000" points="439.2 -113.75 445.46 -105.21 435.24 -107.98 439.2 -113.75"/></g><g id="node13" class="node"><title>140296059198944</title><ellipse cx="559.16" cy="-90" fill="#003ccb" fill-opacity=".6" stroke="#003ccb" stroke-opacity=".6" rx="37.24" ry="18"/><text x="559.16" y="-85.8" font-family="Times,serif" font-size="14" text-anchor="middle">Looped</text></g><g id="edge12" class="edge"><title>140296059197360-&gt;140296059198944</title><path fill="none" stroke="#000" d="M632.44,-146.15C619.16,-136.16 601.45,-122.83 586.77,-111.78"/><polygon fill="#000" stroke="#000" points="588.63 -108.8 578.54 -105.58 584.42 -114.39 588.63 -108.8"/></g><g id="node14" class="node"><title>140296059200800</title><ellipse cx="652.16" cy="-90" fill="#28a745" fill-opacity=".6" stroke="#28a745" stroke-opacity=".6" rx="38.21" ry="18"/><text x="652.16" y="-85.8" font-family="Times,serif" font-size="14" text-anchor="middle">Success</text></g><g id="edge13" class="edge"><title>140296059197360-&gt;140296059200800</title><path fill="none" stroke="#000" d="M652.16,-143.7C652.16,-135.98 652.16,-126.71 652.16,-118.11"/><polygon fill="#000" stroke="#000" points="655.66 -118.1 652.16 -108.1 648.66 -118.1 655.66 -118.1"/></g><g id="node18" class="node"><title>140296059205088</title><ellipse cx="754.16" cy="-90" fill="#bdbdbd" fill-opacity=".6" stroke="#f58c0c" stroke-opacity=".6" rx="45.43" ry="18"/><text x="754.16" y="-85.8" font-family="Times,serif" font-size="14" text-anchor="middle">Cancelled</text></g><g id="edge17" class="edge"><title>140296059197360-&gt;140296059205088</title><path fill="none" stroke="#000" d="M673.29,-146.5C687.87,-136.49 707.47,-123.05 723.72,-111.89"/><polygon fill="#000" stroke="#000" points="726.08 -114.51 732.35 -105.97 722.12 -108.74 726.08 -114.51"/></g><g id="node19" class="node"><title>140296059206704</title><ellipse cx="888.16" cy="-90" fill="#eb0000" fill-opacity=".6" stroke="#eb0000" stroke-opacity=".6" rx="32.42" ry="18"/><text x="888.16" y="-85.8" font-family="Times,serif" font-size="14" text-anchor="middle">Failed</text></g><g id="edge18" class="edge"><title>140296059197360-&gt;140296059206704</title><path fill="none" stroke="#000" d="M684.98,-151.27C728.42,-138.38 804.87,-115.71 850.58,-102.15"/><polygon fill="#000" stroke="#000" points="851.81 -105.43 860.4 -99.23 849.82 -98.72 851.81 -105.43"/></g><g id="node15" class="node"><title>140296059202336</title><ellipse cx="510.16" cy="-18" fill="#34d058" fill-opacity=".6" stroke="#34d058" stroke-opacity=".6" rx="36.75" ry="18"/><text x="510.16" y="-13.8" font-family="Times,serif" font-size="14" text-anchor="middle">Cached</text></g><g id="edge14" class="edge"><title>140296059200800-&gt;140296059202336</title><path fill="none" stroke="#000" d="M626.77,-76.49C603.85,-65.19 569.94,-48.47 544.58,-35.97"/><polygon fill="#000" stroke="#000" points="545.84 -32.69 535.33 -31.41 542.75 -38.97 545.84 -32.69"/></g><g id="node16" class="node"><title>140296059204144</title><ellipse cx="604.16" cy="-18" fill="#003ccb" fill-opacity=".6" stroke="#003ccb" stroke-opacity=".6" rx="39.17" ry="18"/><text x="604.16" y="-13.8" font-family="Times,serif" font-size="14" text-anchor="middle">Mapped</text></g><g id="edge15" class="edge"><title>140296059200800-&gt;140296059204144</title><path fill="none" stroke="#000" d="M641.03,-72.76C635.18,-64.23 627.87,-53.58 621.32,-44.02"/><polygon fill="#000" stroke="#000" points="624.11 -41.9 615.57 -35.63 618.33 -45.86 624.11 -41.9"/></g><g id="node17" class="node"><title>140296059212944</title><ellipse cx="700.16" cy="-18" fill="#62757f" fill-opacity=".6" stroke="#62757f" stroke-opacity=".6" rx="39.19" ry="18"/><text x="700.16" y="-13.8" font-family="Times,serif" font-size="14" text-anchor="middle">Skipped</text></g><g id="edge16" class="edge"><title>140296059200800-&gt;140296059212944</title><path fill="none" stroke="#000" d="M663.29,-72.76C669.15,-64.23 676.45,-53.58 683,-44.02"/><polygon fill="#000" stroke="#000" points="685.99 -45.86 688.75 -35.63 680.21 -41.9 685.99 -45.86"/></g><g id="node20" class="node"><title>140296059208240</title><ellipse cx="803.16" cy="-18" fill="#ff4e33" fill-opacity=".6" stroke="#ff4e33" stroke-opacity=".6" rx="46.3" ry="18"/><text x="803.16" y="-13.8" font-family="Times,serif" font-size="14" text-anchor="middle">TimedOut</text></g><g id="edge19" class="edge"><title>140296059206704-&gt;140296059208240</title><path fill="none" stroke="#000" d="M870.55,-74.5C858.79,-64.81 843.11,-51.9 829.83,-40.96"/><polygon fill="#000" stroke="#000" points="831.87 -38.11 821.93 -34.46 827.42 -43.52 831.87 -38.11"/></g><g id="node21" class="node"><title>140296059209808</title><ellipse cx="926.16" cy="-18" fill="#ff5131" fill-opacity=".6" stroke="#ff5131" stroke-opacity=".6" rx="58.34" ry="18"/><text x="926.16" y="-13.8" font-family="Times,serif" font-size="14" text-anchor="middle">TriggerFailed</text></g><g id="edge20" class="edge"><title>140296059206704-&gt;140296059209808</title><path fill="none" stroke="#000" d="M897.17,-72.41C901.64,-64.16 907.16,-54.01 912.17,-44.78"/><polygon fill="#000" stroke="#000" points="915.26 -46.41 916.96 -35.96 909.11 -43.07 915.26 -46.41"/></g><g id="node22" class="node"><title>140296059211360</title><ellipse cx="1071.16" cy="-18" fill="#ff5131" fill-opacity=".6" stroke="#ff5131" stroke-opacity=".6" rx="68.62" ry="18"/><text x="1071.16" y="-13.8" font-family="Times,serif" font-size="14" text-anchor="middle">ValidationFailed</text></g><g id="edge21" class="edge"><title>140296059206704-&gt;140296059211360</title><path fill="none" stroke="#000" d="M913.99,-79.12C942.63,-68.16 989.41,-50.27 1024.5,-36.85"/><polygon fill="#000" stroke="#000" points="1025.97 -40.03 1034.06 -33.19 1023.47 -33.49 1025.97 -40.03"/></g></g></svg>