<svg xmlns="http://www.w3.org/2000/svg" xmlns:xlink="http://www.w3.org/1999/xlink" width="464" height="745" version="1.1" viewBox="0 0 464 745"><title>logomark/primary-color</title><desc>Created with Sketch.</desc><defs><linearGradient id="linearGradient-1" x1="85.333%" x2="14.482%" y1="85.333%" y2="13.509%"><stop offset="0%" stop-color="#B4C0C9"/><stop offset="97.238%" stop-color="#94A5B2"/></linearGradient><polygon id="path-2" points="232.25 115.966 .5 .006 .5 235.916"/><linearGradient id="linearGradient-4" x1="9.333%" x2="139.355%" y1="10.667%" y2="37.538%"><stop offset="0%" stop-color="#647989"/><stop offset="100%" stop-color="#2F383E"/></linearGradient><linearGradient id="linearGradient-5" x1="25.689%" x2="84.122%" y1="17.537%" y2="88.885%"><stop offset="0%" stop-color="#2EDAFF"/><stop offset="100%" stop-color="#3B8DFF"/></linearGradient></defs><g id="logomark/primary-color" fill="none" fill-rule="evenodd" stroke="none" stroke-width="1"><g id="Prefect-Blue"><g id="middle-triangle" transform="translate(231.000000, 231.000000)"><mask id="mask-3" fill="#fff"><use xlink:href="#path-2"/></mask><use id="triangle" fill="url(#linearGradient-1)" xlink:href="#path-2"/><polygon id="left-shadow" fill="#0D3958" fill-opacity=".2" points="30 220.646 .5 45.166 .5 235.916" mask="url(#mask-3)"/><polygon id="right-shadow" fill="#0D3958" fill-opacity=".2" points="202.5 101.085 .5 .006 .5 25.666" mask="url(#mask-3)"/></g><path id="leg" fill="url(#linearGradient-4)" d="M14,742.37 C14.5,742.11 226.755,639.2 227,639.07 C229.934,637.42 231.535,636.89 231.6,631.67 C231.606,631.17 231.5,231.015 231.5,231.015 C141.595,276.026 15,339.166 4,345.016 C0.5,346.877 2.84217094e-14,348.666 2.84217094e-14,351.166 L2.84217094e-14,732.17 C2.84217094e-14,740.67 0.5,749.17 14,742.37 Z"/><path id="top" fill="url(#linearGradient-5)" d="M463.25,119.997 L463.25,346.966 C463.25,346.966 31,130.79 16,122.916 C6,117.666 6,112.666 16,107.166 C25.233,102.088 200.558,14.607 227.5,1.166 C231,-0.334 232,-0.334 235.075,0.866 L458.85,112.916 C462,114.666 463,116.166 463.25,119.997 Z"/></g></g></svg>