<svg xmlns="http://www.w3.org/2000/svg" xmlns:xlink="http://www.w3.org/1999/xlink" id="PREFECT_LOGOMARK" x="0" y="0" version="1.1" viewBox="0 0 1000 1000" xml:space="preserve" style="enable-background:new 0 0 1000 1000"><style type="text/css">.st0{filter:url(#Adobe_OpacityMaskFilter)}.st1,.st2{fill-rule:evenodd;clip-rule:evenodd;fill:#fff}.st2{mask:url(#mask-2_2_);fill:#333f48}.st3{filter:url(#Adobe_OpacityMaskFilter_1_)}.st4{mask:url(#mask-4_2_);fill-rule:evenodd;clip-rule:evenodd;fill:#333f48}</style><switch><g><g id="Core-Mark"><g id="Group-3_1_" transform="translate(3.751628, 0.000000)"><defs><filter id="Adobe_OpacityMaskFilter" width="456.7" height="395.3" x="306.5" y="237.6" filterUnits="userSpaceOnUse"><feColorMatrix type="matrix" values="1 0 0 0 0 0 1 0 0 0 0 0 1 0 0 0 0 0 1 0"/></filter></defs><mask id="mask-2_2_" width="456.7" height="395.3" x="306.5" y="237.6" maskUnits="userSpaceOnUse"><g class="st0"><polygon id="path-1_2_" points="306.5 237.6 763.1 237.6 763.1 632.9 306.5 632.9" class="st1"/></g></mask><path id="Fill-1_2_" d="M609,465L499,519l225.8,113.9c24.2-39.3,38.3-85.1,38.3-134.3c0-144.1-119.2-261-266.1-261 c-74.7,0-142.2,30.4-190.6,79L609,465z" class="st2"/></g><g id="Group-6_1_" transform="translate(0.000000, 6.645833)"><defs><filter id="Adobe_OpacityMaskFilter_1_" width="464.3" height="409.7" x="233.1" y="346" filterUnits="userSpaceOnUse"><feColorMatrix type="matrix" values="1 0 0 0 0 0 1 0 0 0 0 0 1 0 0 0 0 0 1 0"/></filter></defs><mask id="mask-4_2_" width="464.3" height="409.7" x="233.1" y="346" maskUnits="userSpaceOnUse"><g class="st3"><polygon id="path-3_2_" points="233.1 346 697.4 346 697.4 755.7 233.1 755.7" class="st1"/></g></mask><path id="Fill-4_1_" d="M388.9,511.9l108.3-55.6L275.9,346c-27,41.5-42.8,90.9-42.8,144.1 c0,146.7,119.1,265.6,266,265.6c78.9,0,149.5-34.4,198.2-88.8L388.9,511.9z" class="st4"/></g></g></g></switch></svg>