<svg xmlns="http://www.w3.org/2000/svg" xmlns:xlink="http://www.w3.org/1999/xlink" width="1440" height="1726" version="1.1" viewBox="0 0 1440 1726"><title>Group 3</title><desc>Created with Sketch.</desc><defs><linearGradient id="linearGradient-1" x1="0%" x2="100%" y1="50%" y2="50%"><stop offset="0%" stop-color="#2EDAFF"/><stop offset="100%" stop-color="#0E50F5"/></linearGradient><linearGradient id="linearGradient-2" x1="0%" x2="100%" y1="50%" y2="50%"><stop offset="0%" stop-color="#2EDAFF"/><stop offset="100%" stop-color="#0E50F5"/></linearGradient><linearGradient id="linearGradient-3" x1="0%" x2="100%" y1="50%" y2="50%"><stop offset="0%" stop-color="#0E50F5"/><stop offset="100%" stop-color="#2EDAFF"/></linearGradient></defs><g id="Design" fill="none" fill-rule="evenodd" stroke="none" stroke-width="1"><g id="Lighthouse-Partnership"><g id="Group-3" transform="translate(-521.000000, -787.000000)"><polygon id="Rectangle" fill="url(#linearGradient-1)" points="521 787 1961 787 1961 1808 521 1089.025"/><polygon id="Rectangle-Copy-11" fill="url(#linearGradient-2)" points="0 355 1440 355 1440 1330 0 611.025"/><polygon id="Rectangle-Copy-6" fill="url(#linearGradient-2)" points="321 313 1761 764 1761 1288 321 569.025"/><polygon id="Rectangle-Copy-12" fill="url(#linearGradient-2)" points="107 0 1547 787 1547 975 107 256.025"/><polygon id="Rectangle-Copy-5" fill="url(#linearGradient-3)" points="521 1088 1961 1088 1961 2513 521 1794.007" transform="translate(1241.000000, 1800.500000) rotate(-180.000000) translate(-1241.000000, -1800.500000)"/></g></g></g></svg>